<svg width="173" height="22" viewBox="0 0 173 22" fill="none" xmlns="http://www.w3.org/2000/svg">
<path d="M8.50144 1.33964L0.597983 5.67681C0.424681 5.78461 0.279873 5.93254 0.175792 6.1081C0.0717105 6.28365 0.0114152 6.48169 0 6.68546V15.313C0 15.6876 0.270173 16.1415 0.597983 16.3216L8.49784 20.6624C8.82565 20.8425 9.36239 20.8425 9.6938 20.6624L17.5901 16.3216C17.7634 16.2138 17.9082 16.0659 18.0122 15.8903C18.1163 15.7148 18.1766 15.5168 18.188 15.313V6.68546C18.188 6.31082 17.9215 5.85693 17.5901 5.67681L9.69741 1.33964C9.51229 1.24575 9.30695 1.19875 9.09942 1.20275C8.88329 1.20275 8.66715 1.24958 8.50144 1.33964Z" fill="#2DC5FA"/>
<path d="M29.6635 16H27.3881V4.81488H29.6635V16ZM34.345 11.7324V16H32.0792V5.0069C33.1897 4.80208 34.4026 4.69967 35.7179 4.69967C36.0796 4.69967 36.4236 4.71247 36.7501 4.73807C37.0701 4.76368 37.3821 4.80848 37.6861 4.87249C38.0062 4.93329 38.2862 5.0197 38.5262 5.13171C39.0735 5.37494 39.4831 5.73017 39.7552 6.19742C40.0592 6.71267 40.2112 7.38474 40.2112 8.21362C40.2112 9.18332 40.016 9.93379 39.6255 10.465C39.2607 10.9643 38.7407 11.3163 38.0654 11.5212L40.6192 16H38.0078L35.7131 11.7804C35.3003 11.7804 34.8443 11.7644 34.345 11.7324ZM34.345 6.56706V9.92739C34.681 9.9658 35.1419 9.985 35.7276 9.985C36.1084 9.985 36.4268 9.9578 36.6828 9.90339C36.9421 9.84899 37.1709 9.75778 37.3693 9.62976C37.7662 9.37054 37.9646 8.89529 37.9646 8.20402C37.9646 7.57676 37.8014 7.13191 37.4749 6.86949C37.1453 6.60386 36.5788 6.47105 35.7756 6.47105C35.3083 6.47105 34.8315 6.50305 34.345 6.56706ZM48.0274 15.976C47.5793 16.0688 47.0673 16.1152 46.4912 16.1152C45.3263 16.1152 44.4238 15.9216 43.7837 15.5344C43.4541 15.3263 43.1757 15.0767 42.9484 14.7855C42.5132 14.203 42.2316 13.3549 42.1036 12.2412C42.046 11.7132 42.0172 11.1019 42.0172 10.4074C42.0172 9.0377 42.1452 7.94639 42.4012 7.13351C42.542 6.69187 42.7244 6.32543 42.9484 6.0342C43.4093 5.42294 44.0766 5.0245 44.9502 4.83888C45.4047 4.74608 45.9183 4.69967 46.4912 4.69967C47.6529 4.69967 48.5538 4.89489 49.1939 5.28533C49.5267 5.48695 49.8051 5.73657 50.0292 6.0342C50.4676 6.61346 50.7476 7.45995 50.8692 8.57366C50.93 9.08891 50.9604 9.70017 50.9604 10.4074C50.9604 11.7996 50.8308 12.8925 50.5716 13.6862C50.37 14.3262 50.0644 14.8303 49.6547 15.1983C49.2451 15.5632 48.7026 15.8224 48.0274 15.976ZM46.4912 14.243C47.3009 14.243 47.8673 13.9998 48.1906 13.5134C48.4434 13.1421 48.5906 12.5485 48.6322 11.7324C48.6482 11.4059 48.6562 10.9643 48.6562 10.4074C48.6562 9.43134 48.6226 8.73687 48.5554 8.32403C48.4402 7.64236 48.1906 7.16712 47.8065 6.89829C47.4833 6.67747 47.0449 6.56706 46.4912 6.56706C45.6815 6.56706 45.1135 6.81028 44.787 7.29673C44.5342 7.66797 44.387 8.26163 44.3454 9.07771C44.3294 9.40414 44.3214 9.84739 44.3214 10.4074C44.3214 11.3835 44.355 12.0748 44.4222 12.4812C44.531 13.1629 44.7806 13.6382 45.1711 13.907C45.4911 14.131 45.9311 14.243 46.4912 14.243ZM56.3819 6.16862L59.9343 13.0189V4.81488H61.9745V14.411C61.9745 15.5472 61.5168 16.1152 60.6015 16.1152C60.1823 16.1152 59.8255 16.0064 59.531 15.7888C59.243 15.5712 58.9566 15.1887 58.6717 14.6415L55.1242 7.76718V16H53.084V6.39904C53.084 5.26613 53.5416 4.69967 54.4569 4.69967C54.857 4.69967 55.209 4.81328 55.513 5.0405C55.8235 5.27093 56.1131 5.64697 56.3819 6.16862Z" fill="black"/>
<path d="M65.7706 11.4299V16H64.5369V4.9637C65.593 4.78768 66.7323 4.69967 67.9549 4.69967C68.3421 4.69967 68.6749 4.71087 68.9534 4.73327C69.6446 4.78448 70.2175 4.91249 70.6719 5.11731C70.9184 5.22612 71.1456 5.36854 71.3536 5.54455C71.5616 5.71737 71.7312 5.91579 71.8625 6.13981C72.1569 6.63586 72.3041 7.27913 72.3041 8.06961C72.3041 9.14491 72.0481 9.9546 71.536 10.4987C71.3024 10.7515 71.0016 10.9547 70.6335 11.1083C70.2687 11.2619 69.8847 11.3675 69.4814 11.4251C69.0654 11.4795 68.5997 11.5068 68.0845 11.5068C67.4956 11.5068 66.7243 11.4811 65.7706 11.4299ZM65.7706 5.85659V10.3978C66.3947 10.465 67.1228 10.4987 67.9549 10.4987C68.7837 10.4987 69.435 10.401 69.9087 10.2058C70.3023 10.0458 70.5919 9.79458 70.7775 9.45215C70.9664 9.10971 71.0656 8.64887 71.0752 8.06961C71.0752 7.21832 70.8432 6.61346 70.3791 6.25503C69.9183 5.89019 69.1294 5.70777 68.0125 5.70777C67.254 5.70777 66.5067 5.75738 65.7706 5.85659ZM75.6252 11.3339V16H74.3963V4.9637C75.4492 4.78768 76.5869 4.69967 77.8094 4.69967C78.1999 4.69967 78.5311 4.71087 78.8031 4.73327C79.088 4.75248 79.3888 4.79408 79.7056 4.85809C80.0129 4.91889 80.2849 5.0005 80.5217 5.10291C81.0562 5.33013 81.453 5.66457 81.7122 6.10621C82.0099 6.60226 82.1587 7.23912 82.1587 8.0168C82.1587 9.07611 81.9058 9.86659 81.4002 10.3882C80.9266 10.8683 80.2625 11.1755 79.408 11.3099L82.1491 16H80.7089L78.1119 11.4107H77.9391C77.3502 11.4107 76.5789 11.3851 75.6252 11.3339ZM75.6252 5.85179V10.297C76.2557 10.3642 76.9838 10.3978 77.8094 10.3978C78.6351 10.3978 79.2848 10.3002 79.7584 10.105C80.1521 9.94499 80.4449 9.69697 80.6369 9.36094C80.8321 9.0217 80.9298 8.57366 80.9298 8.0168C80.9234 7.44714 80.8209 6.9975 80.6225 6.66787C80.4241 6.33823 80.1057 6.09821 79.6672 5.94779C79.2288 5.79418 78.6287 5.71257 77.867 5.70297C77.115 5.70297 76.3677 5.75258 75.6252 5.85179ZM90.043 15.976C89.6077 16.0688 89.1101 16.1152 88.55 16.1152C87.4235 16.1152 86.5498 15.9216 85.929 15.5344C85.6025 15.3231 85.3321 15.0735 85.1177 14.7855C84.6984 14.203 84.428 13.3549 84.3064 12.2412C84.2488 11.7132 84.22 11.1019 84.22 10.4074C84.22 9.0313 84.3448 7.93999 84.5944 7.13351C84.732 6.68867 84.9065 6.32223 85.1177 6.0342C85.5689 5.41974 86.2154 5.0213 87.0571 4.83888C87.4923 4.74608 87.99 4.69967 88.55 4.69967C89.6765 4.69967 90.5502 4.89489 91.1711 5.28533C91.4911 5.48695 91.76 5.73657 91.9776 6.0342C92.3936 6.59746 92.664 7.44555 92.7889 8.57846C92.8465 9.10331 92.8753 9.71297 92.8753 10.4074C92.8753 11.1019 92.8465 11.7132 92.7889 12.2412C92.7312 12.7693 92.6352 13.2509 92.5008 13.6862C92.3088 14.3262 92.0144 14.8303 91.6175 15.1983C91.2207 15.5632 90.6958 15.8224 90.043 15.976ZM88.55 15.0735C89.6669 15.0735 90.4574 14.7839 90.9215 14.2046C91.2735 13.7662 91.4895 13.0957 91.5695 12.1932C91.6079 11.7868 91.6271 11.1915 91.6271 10.4074C91.6271 9.31613 91.5823 8.52245 91.4927 8.0264C91.3551 7.22312 91.0527 6.64066 90.5854 6.27903C90.1182 5.92059 89.4397 5.74137 88.55 5.74137C87.4395 5.74137 86.6506 6.0278 86.1834 6.60066C85.8282 7.0327 85.6105 7.69357 85.5305 8.58326C85.4921 8.9961 85.4729 9.60416 85.4729 10.4074C85.4729 11.4859 85.5161 12.2748 85.6025 12.7741C85.7401 13.5838 86.041 14.1678 86.505 14.5263C86.9723 14.8911 87.6539 15.0735 88.55 15.0735ZM97.5983 12.7597V4.81488H98.8368V12.4716C98.8368 13.1469 98.7872 13.7038 98.688 14.1422C98.5856 14.5935 98.4144 14.9679 98.1744 15.2655C97.9375 15.5632 97.6207 15.7792 97.2239 15.9136C96.827 16.048 96.3246 16.1152 95.7165 16.1152C95.1501 16.1152 94.6268 16.0288 94.1468 15.856L94.2572 14.9055C94.6956 15.0271 95.1469 15.0879 95.6109 15.0879C95.8029 15.0879 95.9789 15.0735 96.139 15.0447C96.3022 15.0159 96.4606 14.9695 96.6142 14.9055C96.7678 14.8415 96.9022 14.7503 97.0174 14.6319C97.1327 14.5135 97.2351 14.371 97.3247 14.2046C97.4143 14.0382 97.4815 13.8334 97.5263 13.5902C97.5743 13.3437 97.5983 13.0669 97.5983 12.7597ZM107.875 4.85329V5.81818H105.071C104.697 5.81818 104.398 5.82938 104.174 5.85179C103.681 5.89659 103.322 6.0214 103.098 6.22622C102.996 6.31583 102.909 6.44705 102.839 6.61986C102.775 6.78308 102.732 6.9639 102.709 7.16232C102.687 7.36074 102.676 7.62636 102.676 7.9592V9.80258H107.644V10.8059H102.676V12.8701C102.676 13.1773 102.685 13.4349 102.705 13.643C102.753 14.0846 102.884 14.403 103.098 14.5983C103.207 14.6943 103.353 14.7743 103.535 14.8383C103.845 14.9439 104.358 14.9967 105.071 14.9967H107.875V15.976C107.023 16.0112 106.105 16.0288 105.119 16.0288C104.246 16.0288 103.596 15.9808 103.17 15.8848C102.425 15.7152 101.924 15.3487 101.668 14.7855C101.517 14.4494 101.442 14.0414 101.442 13.5614V7.26313C101.442 6.25183 101.781 5.56056 102.46 5.18932C102.901 4.9493 103.561 4.81808 104.438 4.79568C104.681 4.78928 104.908 4.78608 105.119 4.78608C105.846 4.78608 106.764 4.80848 107.875 4.85329ZM116.735 14.8911L116.845 15.8608C116.036 16.0304 115.186 16.1152 114.296 16.1152C113.394 16.112 112.651 16.0016 112.069 15.784C111.49 15.5632 111.032 15.2191 110.696 14.7519C110.363 14.2622 110.131 13.6702 110 12.9757C109.872 12.262 109.808 11.4059 109.808 10.4074C109.808 9.40574 109.872 8.55126 110 7.84398C110.131 7.14311 110.363 6.55106 110.696 6.06781C111.032 5.59736 111.49 5.25333 112.069 5.0357C112.651 4.81488 113.394 4.70287 114.296 4.69967C115.192 4.69967 116.042 4.78128 116.845 4.9445L116.73 5.92859C115.949 5.81018 115.298 5.75098 114.776 5.75098C113.522 5.75098 112.614 5.9894 112.054 6.46625C111.616 6.84388 111.33 7.42474 111.195 8.20882C111.109 8.71127 111.066 9.44414 111.066 10.4074C111.066 11.5436 111.136 12.3932 111.277 12.9565C111.459 13.683 111.81 14.2094 112.328 14.5359C112.882 14.8879 113.698 15.0639 114.776 15.0639C115.308 15.0639 115.96 15.0063 116.735 14.8911ZM118.309 4.81488H125.663V5.83258H122.605V16H121.372V5.83258H118.309V4.81488ZM131.385 5.75098C131.116 5.75098 130.85 5.75898 130.588 5.77498C129.973 5.81978 129.522 5.91099 129.234 6.0486C128.604 6.32063 128.296 6.79268 128.312 7.46475C128.312 7.85199 128.356 8.15282 128.442 8.36724C128.506 8.50805 128.567 8.62166 128.624 8.70807C128.685 8.79128 128.768 8.87289 128.874 8.9529C129.009 9.04571 129.122 9.11771 129.215 9.16892C129.311 9.22332 129.461 9.28893 129.666 9.36574C129.82 9.42334 130.001 9.48415 130.209 9.54815C130.26 9.56416 130.317 9.58176 130.381 9.60096C130.449 9.62016 130.532 9.64416 130.631 9.67297C130.73 9.70177 130.813 9.72577 130.881 9.74497C131.268 9.85379 131.61 9.969 131.908 10.0906C132.193 10.2058 132.474 10.3546 132.753 10.5371C133.031 10.7195 133.255 10.9179 133.425 11.1323C133.803 11.6092 133.991 12.2204 133.991 12.9661C133.991 14.099 133.646 14.9119 132.954 15.4047C132.298 15.8784 131.321 16.1152 130.021 16.1152C128.994 16.1152 128.04 16.0272 127.16 15.8512L127.28 14.8431C128.25 14.9839 129.148 15.0543 129.973 15.0543C130.652 15.0543 131.201 14.9759 131.62 14.8191C131.978 14.6879 132.247 14.4782 132.426 14.1902C132.606 13.9022 132.7 13.5134 132.71 13.0237C132.71 12.6589 132.65 12.3692 132.532 12.1548C132.407 11.8988 132.242 11.7004 132.038 11.5596C131.807 11.3899 131.548 11.2491 131.26 11.1371C131.081 11.0667 130.921 11.0091 130.78 10.9643C130.633 10.9099 130.45 10.8523 130.233 10.7915C129.951 10.7051 129.684 10.6203 129.431 10.5371C129.207 10.457 128.978 10.3658 128.744 10.2634C128.504 10.1578 128.308 10.0522 128.154 9.94659C127.77 9.67777 127.503 9.38494 127.352 9.06811C127.17 8.67767 127.079 8.21522 127.079 7.68077C127.079 6.57666 127.41 5.79898 128.072 5.34774C128.405 5.12051 128.799 4.9557 129.253 4.85329C129.708 4.75088 130.255 4.69967 130.895 4.69967C131.801 4.69967 132.743 4.78448 133.723 4.9541L133.612 5.943C132.758 5.81498 132.015 5.75098 131.385 5.75098Z" fill="black"/>
<path d="M143.683 9.35614H147.715V4.81488H150V16H147.715V11.2139H143.683V16H141.407V4.81488H143.683V9.35614ZM158.464 4.81488H160.706V12.2316C160.706 13.4125 160.458 14.3118 159.962 14.9295C159.732 15.2239 159.437 15.4591 159.079 15.6352C158.429 15.9552 157.573 16.1152 156.51 16.1152C155.986 16.1152 155.512 16.0784 155.09 16.0048C154.67 15.9312 154.286 15.808 153.937 15.6352C153.582 15.4591 153.286 15.2239 153.049 14.9295C152.557 14.3086 152.31 13.4093 152.31 12.2316V4.81488H154.552V12.3564C154.552 13.0285 154.698 13.5054 154.989 13.787C155.28 14.0686 155.787 14.2094 156.51 14.2094C157.227 14.2094 157.731 14.0686 158.023 13.787C158.317 13.5022 158.464 13.0253 158.464 12.3564V4.81488ZM166.729 4.69967C167.058 4.69967 167.364 4.70927 167.646 4.72847C167.927 4.74768 168.225 4.78608 168.539 4.84369C168.836 4.89489 169.118 4.9685 169.383 5.06451C169.956 5.26933 170.393 5.57496 170.694 5.9814C171.04 6.44545 171.212 7.0311 171.212 7.73837C171.212 8.31763 171.07 8.83608 170.785 9.29373C170.504 9.74817 170.096 10.0762 169.561 10.2778C170.774 10.6843 171.38 11.5948 171.38 13.0093C171.368 14.0782 171.028 14.8511 170.363 15.3279C169.947 15.632 169.435 15.8416 168.827 15.9568C168.283 16.0624 167.646 16.1152 166.916 16.1152C165.495 16.1152 164.22 16.0144 163.09 15.8128V5.0117C163.551 4.92209 164.114 4.84848 164.78 4.79088C165.42 4.73007 166.07 4.69967 166.729 4.69967ZM166.806 11.1083H165.341V14.219C165.828 14.283 166.334 14.315 166.858 14.315C167.441 14.315 167.897 14.2622 168.227 14.1566C168.524 14.0606 168.745 13.9022 168.889 13.6814C169.033 13.4573 169.111 13.1453 169.124 12.7453C169.124 12.2172 168.98 11.822 168.692 11.5596C168.564 11.4411 168.396 11.3483 168.188 11.2811C167.842 11.1659 167.382 11.1083 166.806 11.1083ZM165.346 6.57186V9.46175H166.806C167.372 9.46175 167.814 9.40894 168.131 9.30333C168.422 9.20732 168.638 9.05211 168.779 8.83768C168.923 8.62006 168.999 8.31923 169.009 7.93519C169.009 7.39114 168.854 7.0183 168.543 6.81668C168.339 6.67267 168.084 6.58146 167.78 6.54305C167.518 6.50145 167.167 6.48065 166.729 6.48065C166.271 6.48065 165.81 6.51105 165.346 6.57186Z" fill="black"/>
</svg>
