<svg width="24" height="24" viewBox="0 0 24 24" fill="none" xmlns="http://www.w3.org/2000/svg">
<path d="M11.4074 2.33964L3.50399 6.67681C3.33069 6.78461 3.18588 6.93254 3.0818 7.1081C2.97772 7.28365 2.91742 7.48169 2.90601 7.68546V16.313C2.90601 16.6876 3.17618 17.1415 3.50399 17.3216L11.4038 21.6624C11.7317 21.8425 12.2684 21.8425 12.5998 21.6624L20.4961 17.3216C20.6694 17.2138 20.8142 17.0659 20.9183 16.8903C21.0223 16.7148 21.0826 16.5168 21.094 16.313V7.68546C21.094 7.31082 20.8275 6.85693 20.4961 6.67681L12.6034 2.33964C12.4183 2.24575 12.213 2.19875 12.0054 2.20275C11.7893 2.20275 11.5732 2.24958 11.4074 2.33964Z" fill="#2DC5FA"/>
</svg>
